<?xml version="1.0" encoding="UTF-8" standalone="no"?><!DOCTYPE svg PUBLIC "-//W3C//DTD SVG 1.1//EN" "http://www.w3.org/Graphics/SVG/1.1/DTD/svg11.dtd"><svg width="100%" height="100%" viewBox="0 0 77 90" version="1.1" xmlns="http://www.w3.org/2000/svg" xmlns:xlink="http://www.w3.org/1999/xlink" xml:space="preserve" xmlns:serif="http://www.serif.com/" style="fill-rule:evenodd;clip-rule:evenodd;stroke-linejoin:round;stroke-miterlimit:2;"><path d="M7.9,8.387l-6.716,45.062l5.566,15.359l31.388,19.55l31.387,-19.551l5.567,-15.358l-6.717,-45.062l-30.237,-7.205l-30.238,7.205Z" style="fill:url(#_Linear1);fill-rule:nonzero;"/><path d="M38.138,0l-31.259,7.446l-6.879,46.121l5.808,16.008l32.33,20.133l32.337,-20.133l5.796,-16.008l-6.871,-46.121l-31.262,-7.446Zm-0,2.367l29.216,6.958l6.554,44.008l-5.329,14.709l-30.441,18.954l-30.438,-18.954l-5.333,-14.709l6.558,-44.008l29.213,-6.958Z" style="fill:#bf8564;fill-rule:nonzero;"/><defs><linearGradient id="_Linear1" x1="0" y1="0" x2="1" y2="0" gradientUnits="userSpaceOnUse" gradientTransform="matrix(-29.2379,80.3304,-80.3304,-29.2379,51.8919,2.38868)"><stop offset="0" style="stop-color:#bf8564;stop-opacity:1"/><stop offset="1" style="stop-color:#6a4938;stop-opacity:1"/></linearGradient></defs></svg>