<?xml version="1.0" encoding="UTF-8" standalone="no"?><!DOCTYPE svg PUBLIC "-//W3C//DTD SVG 1.1//EN" "http://www.w3.org/Graphics/SVG/1.1/DTD/svg11.dtd"><svg width="100%" height="100%" viewBox="0 0 77 90" version="1.1" xmlns="http://www.w3.org/2000/svg" xmlns:xlink="http://www.w3.org/1999/xlink" xml:space="preserve" xmlns:serif="http://www.serif.com/" style="fill-rule:evenodd;clip-rule:evenodd;stroke-linejoin:round;stroke-miterlimit:2;"><path d="M7.904,8.384l-6.721,45.025l5.567,15.338l31.354,19.52l31.35,-19.52l5.571,-15.338l-6.713,-45.025l-30.208,-7.2l-30.2,7.2Z" style="fill:url(#_Linear1);fill-rule:nonzero;"/><path d="M38.104,-0l-31.225,7.442l-6.879,46.087l5.808,15.983l32.296,20.113l32.296,-20.113l5.804,-15.983l-6.866,-46.087l-31.234,-7.442Zm0,2.362l29.188,6.959l6.55,43.971l-5.334,14.683l-30.404,18.938l-30.404,-18.938l-5.337,-14.683l6.562,-43.971l29.179,-6.959Z" style="fill:#a7a89b;fill-rule:nonzero;"/><defs><linearGradient id="_Linear1" x1="0" y1="0" x2="1" y2="0" gradientUnits="userSpaceOnUse" gradientTransform="matrix(-29.2086,80.2501,-80.2501,-29.2086,51.8451,2.39273)"><stop offset="0" style="stop-color:#a7a89b;stop-opacity:1"/><stop offset="1" style="stop-color:#61625c;stop-opacity:1"/></linearGradient></defs></svg>