<?xml version="1.0" encoding="UTF-8" standalone="no"?><!DOCTYPE svg PUBLIC "-//W3C//DTD SVG 1.1//EN" "http://www.w3.org/Graphics/SVG/1.1/DTD/svg11.dtd"><svg width="100%" height="100%" viewBox="0 0 338 398" version="1.1" xmlns="http://www.w3.org/2000/svg" xmlns:xlink="http://www.w3.org/1999/xlink" xml:space="preserve" xmlns:serif="http://www.serif.com/" style="fill-rule:evenodd;clip-rule:evenodd;stroke-linejoin:round;stroke-miterlimit:2;"><path d="M39.558,41.34l-29.084,194.966l23.667,65.134l134.812,83.945l134.838,-83.945l23.641,-65.13l-29.049,-194.97l-129.43,-30.85l-129.395,30.85Zm184.795,111.145c-2.687,-3.316 -6.154,-7.154 -6.154,-7.154c0,0 -10.904,-1.391 -15.046,-4.3c-4.141,-2.9 -10.92,-13.466 -10.046,-14.696c0.892,-1.229 12.951,2.205 16.838,5.159c6.254,4.746 9.375,12.396 9.375,12.396c0,-0 7.079,8.145 9.967,12.441c2.887,4.304 7.345,11.996 7.345,11.996c0,0 -2.283,-8.412 -0.845,-13.508c1.441,-5.096 6.387,-18.446 9.537,-18.034c2.371,0.317 5.25,15.109 4.125,20.125c-1.675,7.455 -9.583,17.375 -9.583,17.375c-0,0 2.325,6.055 3.537,11.042c1.213,4.992 2.242,11.267 2.242,11.267c0,-0 1.342,-4.875 4.825,-9.434c3.492,-4.566 10.187,-11.133 11.846,-10.133c1.666,1.008 0.667,13.5 -1.517,18.1c-2.371,4.971 -6.629,9.733 -10.771,12.908c-1.825,1.396 -3.862,2.23 -3.862,2.23c-0,-0 -0.696,5.9 -1.746,9.87c-1.05,3.971 -2.346,8.046 -2.346,8.046c0,0 3.709,-3.458 7.05,-5.15c3.342,-1.7 11.313,-5.671 12.6,-4.204c1.283,1.463 -3.666,13.771 -8.808,17.608c-10.233,8.292 -19.563,9.042 -19.563,9.042c0,0 -2.291,3.271 -4.275,5.396c-1.979,2.125 -4.621,4.637 -4.621,4.637c0,0 2.546,-1.316 7.105,-1.637c4.558,-0.313 12.525,-0.121 12.771,1.312c0.254,1.434 -8.288,11.388 -15.034,13.263c-14.6,4.054 -22.225,-2.329 -22.225,-2.329c0,-0 -0.692,-0.004 -3.175,1.079c-2.479,1.071 -3.196,1.467 -3.196,1.467l-0.829,-1.042c-0.408,-0.588 -1.321,-1.046 -1.321,-1.046c0,0 2.738,-0.087 6.48,-1.667c3.466,-1.454 5.591,-2.537 5.591,-2.537c0,-0 -4.175,-10.767 -3.725,-15.979c0.446,-5.209 6.404,-19.388 9.104,-19.388c2.863,0 4.763,15.225 4.763,17.909c-0,8.187 -4.563,14.045 -4.563,14.045c0,0 6.309,-4.262 10.125,-9.075c3.825,-4.816 7.138,-9.958 7.138,-9.958c-0,0 -9.538,-9.204 -11.484,-15.362c-1.945,-6.163 -0.966,-20.505 1.213,-21.08c2.183,-0.579 11.783,13.1 12.454,18.821c0.675,5.729 0,13.55 0,13.55c0,0 3.688,-6.533 5.408,-14.483c1.717,-7.963 2.43,-14.863 2.43,-14.863c-0,0 -11.559,-5.166 -15.488,-10.266c-5.196,-6.725 -8.546,-19.259 -6.683,-20.829c1.704,-1.43 13.771,7.212 17.866,13.562c2.309,3.588 4.213,9.146 4.213,9.146c0,-0 -0.479,-7.754 -2.337,-13.608c-1.863,-5.85 -4.567,-12.425 -4.567,-12.425c-0,-0 -0.304,-0.767 -2.258,-1.03c-1.955,-0.25 -13.621,-1.675 -17.509,-4.75c-3.892,-3.079 -13.937,-15.579 -12.279,-17.587c1.663,-2.004 15.879,3.2 19.792,6.058c3.916,2.85 5.275,4.875 5.275,4.875c-0,0 -2.471,-3.858 -5.159,-7.171Zm-112.846,3.846c2.888,-4.296 9.967,-12.441 9.967,-12.441c0,-0 3.129,-7.65 9.379,-12.396c3.884,-2.954 15.942,-6.388 16.834,-5.154c0.875,1.225 -5.9,11.791 -10.042,14.691c-4.146,2.909 -15.05,4.3 -15.05,4.3c-0,0 -3.462,3.838 -6.146,7.154c-2.696,3.313 -5.162,7.171 -5.162,7.171c-0,0 1.358,-2.025 5.275,-4.875c3.908,-2.858 18.129,-8.062 19.791,-6.058c1.659,2.008 -8.395,14.508 -12.279,17.587c-3.896,3.075 -15.554,4.5 -17.508,4.75c-1.958,0.263 -2.263,1.03 -2.263,1.03c0,-0 -2.704,6.575 -4.566,12.425c-1.85,5.854 -2.334,13.608 -2.334,13.608c0,-0 1.9,-5.558 4.217,-9.146c4.087,-6.35 16.154,-14.992 17.858,-13.562c1.863,1.57 -1.487,14.104 -6.683,20.829c-3.925,5.1 -15.483,10.266 -15.483,10.266c-0,0 0.708,6.9 2.425,14.863c1.716,7.954 5.42,14.483 5.42,14.483c0,0 -0.683,-7.821 0.001,-13.541c0.666,-5.73 10.258,-19.409 12.445,-18.83c2.18,0.575 3.159,14.917 1.209,21.08c-1.946,6.158 -11.484,15.362 -11.484,15.362c0,0 3.313,5.142 7.138,9.958c3.821,4.813 10.129,9.075 10.129,9.075c-0,0 -4.558,-5.858 -4.558,-14.045c-0,-2.684 1.887,-17.909 4.758,-17.909c2.7,0 8.658,14.179 9.108,19.388c0.446,5.212 -3.729,15.979 -3.729,15.979c0,-0 2.125,1.083 5.592,2.537c3.742,1.58 6.475,1.667 6.475,1.667c-0,0 -0.908,0.458 -1.317,1.046l-0.829,1.042c0,-0 -0.717,-0.396 -3.204,-1.467c-2.479,-1.083 -3.167,-1.079 -3.167,-1.079c0,-0 -7.633,6.383 -22.225,2.329c-6.746,-1.875 -15.283,-11.829 -15.037,-13.263c0.25,-1.433 8.216,-1.625 12.775,-1.312c4.554,0.321 7.1,1.637 7.1,1.637c-0,0 -2.642,-2.512 -4.613,-4.637c-1.992,-2.125 -4.279,-5.396 -4.279,-5.396c0,0 -9.329,-0.75 -19.567,-9.042c-5.141,-3.837 -10.091,-16.145 -8.804,-17.608c1.288,-1.467 9.254,2.504 12.596,4.204c3.35,1.692 7.046,5.15 7.046,5.15c-0,0 -1.296,-4.075 -2.342,-8.046c-1.05,-3.97 -1.737,-9.87 -1.737,-9.87c-0,-0 -2.046,-0.834 -3.871,-2.23c-4.142,-3.175 -8.4,-7.937 -10.767,-12.908c-2.187,-4.6 -3.187,-17.092 -1.521,-18.1c1.671,-1 8.363,5.567 11.85,10.133c3.479,4.559 4.821,9.434 4.821,9.434c0,-0 1.033,-6.275 2.246,-11.267c1.208,-4.987 3.537,-11.042 3.537,-11.042c0,0 -7.908,-9.92 -9.583,-17.375c-1.129,-5.016 1.763,-19.808 4.117,-20.125c3.154,-0.412 8.104,12.938 9.55,18.034c1.437,5.096 -0.85,13.508 -0.85,13.508c-0,0 4.462,-7.692 7.341,-11.996Zm37.376,72.088c-0.705,-0.504 -1.055,-1.379 -0.905,-2.221l3.35,-19.588l-14.212,-13.87c-0.634,-0.592 -0.854,-1.509 -0.592,-2.33c0.263,-0.833 0.979,-1.433 1.846,-1.55l19.654,-2.866l8.788,-17.804c0.791,-1.567 3.337,-1.567 4.091,-0l8.805,17.804l19.662,2.866c0.863,0.117 1.567,0.717 1.838,1.55c0.266,0.821 0.045,1.738 -0.563,2.33l-14.237,13.87l3.35,19.588c0.158,0.842 -0.209,1.717 -0.913,2.221c-0.383,0.291 -0.867,0.45 -1.325,0.45c-0.383,-0 -0.733,-0.092 -1.075,-0.263l-17.575,-9.25l-17.579,9.25c-0.329,0.175 -0.692,0.259 -1.054,0.259c-0.479,-0 -0.959,-0.15 -1.354,-0.446Z" style="fill:url(#_Linear1);fill-rule:nonzero;"/><path d="M303.792,301.442l-134.834,83.946l-134.82,-83.946l-23.663,-65.129l29.083,-194.971l129.4,-30.846l129.425,30.846l29.05,194.971l-23.641,65.129Zm3.671,-268.425l-138.505,-33.017l-138.479,33.017l-30.479,204.346l25.754,70.879l143.204,89.171l143.221,-89.171l25.729,-70.879l-30.445,-204.346Z" style="fill:#a7a89b;fill-rule:nonzero;"/><defs><linearGradient id="_Linear1" x1="0" y1="0" x2="1" y2="0" gradientUnits="userSpaceOnUse" gradientTransform="matrix(-125.715,345.399,-345.399,-125.715,228.295,15.8296)"><stop offset="0" style="stop-color:#a7a89b;stop-opacity:1"/><stop offset="1" style="stop-color:#61625c;stop-opacity:1"/></linearGradient></defs></svg>