<?xml version="1.0" encoding="UTF-8" standalone="no"?><!DOCTYPE svg PUBLIC "-//W3C//DTD SVG 1.1//EN" "http://www.w3.org/Graphics/SVG/1.1/DTD/svg11.dtd"><svg width="100%" height="100%" viewBox="0 0 338 398" version="1.1" xmlns="http://www.w3.org/2000/svg" xmlns:xlink="http://www.w3.org/1999/xlink" xml:space="preserve" xmlns:serif="http://www.serif.com/" style="fill-rule:evenodd;clip-rule:evenodd;stroke-linejoin:round;stroke-miterlimit:2;"><path d="M35.023,37.178l-29.787,199.659l24.716,68l139.009,86.566l139.021,-86.562l24.687,-68.004l-29.746,-199.659l-133.962,-31.933l-133.938,31.933Z" style="fill:url(#_Linear1);fill-rule:nonzero;"/><path d="M168.962,-0l-138.475,33.017l-30.487,204.345l25.758,70.88l143.204,89.17l143.213,-89.17l25.733,-70.88l-30.446,-204.345l-138.5,-33.017Zm0,10.492l129.425,30.85l29.046,194.966l-23.65,65.134l-134.821,83.95l-134.812,-83.95l-23.675,-65.134l29.083,-194.966l129.404,-30.85Z" style="fill:#3c464c;fill-rule:nonzero;"/><path d="M227.084,268.384c-0.408,-0.588 -1.308,-1.042 -1.308,-1.042c-0,0 2.733,-0.083 6.475,-1.658c3.466,-1.467 5.583,-2.55 5.583,-2.55c0,-0 -4.167,-10.767 -3.725,-15.975c0.446,-5.209 6.404,-19.392 9.113,-19.392c2.858,0 4.754,15.233 4.754,17.913c-0,8.187 -4.55,14.054 -4.55,14.054c-0,-0 6.3,-4.267 10.116,-9.084c3.834,-4.808 7.138,-9.958 7.138,-9.958c-0,0 -9.533,-9.2 -11.475,-15.358c-1.946,-6.171 -0.971,-20.509 1.204,-21.084c2.188,-0.579 11.783,13.1 12.458,18.83c0.667,5.72 0,13.55 0,13.55c0,-0 3.68,-6.534 5.405,-14.496c1.716,-7.95 2.433,-14.859 2.433,-14.859c-0,0 -11.558,-5.166 -15.488,-10.262c-5.191,-6.729 -8.545,-19.254 -6.691,-20.825c1.712,-1.433 13.771,7.212 17.866,13.55c2.317,3.587 4.221,9.154 4.221,9.154c0,0 -0.479,-7.754 -2.341,-13.604c-1.859,-5.863 -4.567,-12.438 -4.567,-12.438c-0,0 -0.3,-0.762 -2.254,-1.016c-1.954,-0.25 -13.621,-1.684 -17.513,-4.754c-3.891,-3.075 -13.933,-15.584 -12.279,-17.584c1.658,-2.012 15.875,3.188 19.8,6.046c3.913,2.858 5.271,4.883 5.271,4.883c-0,0 -2.475,-3.858 -5.158,-7.17c-2.696,-3.313 -6.163,-7.155 -6.163,-7.155c0,0 -10.896,-1.391 -15.037,-4.295c-4.15,-2.913 -10.921,-13.467 -10.05,-14.696c0.895,-1.238 12.954,2.204 16.845,5.15c6.25,4.746 9.367,12.396 9.367,12.396c0,-0 7.079,8.145 9.963,12.45c2.887,4.3 7.354,11.995 7.354,11.995c-0,0 -2.288,-8.416 -0.854,-13.516c1.441,-5.096 6.395,-18.45 9.537,-18.025c2.379,0.308 5.25,15.104 4.125,20.125c-1.675,7.446 -9.583,17.366 -9.583,17.366c-0,0 2.333,6.063 3.546,11.05c1.212,4.988 2.237,11.263 2.237,11.263c0,-0 1.346,-4.875 4.821,-9.442c3.496,-4.562 10.196,-11.129 11.846,-10.121c1.679,1 0.666,13.492 -1.513,18.092c-2.375,4.971 -6.625,9.738 -10.766,12.913c-1.821,1.391 -3.867,2.22 -3.867,2.22c-0,0 -0.7,5.909 -1.75,9.88c-1.042,3.975 -2.342,8.05 -2.342,8.05c0,-0 3.704,-3.459 7.054,-5.159c3.346,-1.691 11.305,-5.675 12.6,-4.208c1.284,1.471 -3.67,13.771 -8.816,17.612c-10.229,8.3 -19.563,9.042 -19.563,9.042c0,0 -2.287,3.279 -4.271,5.4c-1.979,2.125 -4.616,4.642 -4.616,4.642c-0,-0 2.55,-1.321 7.104,-1.638c4.558,-0.325 12.517,-0.129 12.771,1.304c0.241,1.43 -8.292,11.392 -15.038,13.263c-14.6,4.054 -22.221,-2.317 -22.221,-2.317c0,0 -0.695,-0.008 -3.17,1.063c-2.484,1.075 -3.2,1.466 -3.2,1.466l-0.838,-1.041Z" style="fill-rule:nonzero;"/><path d="M110.824,268.388c0.408,-0.588 1.325,-1.042 1.325,-1.042c0,0 -2.742,-0.087 -6.483,-1.662c-3.467,-1.463 -5.592,-2.546 -5.592,-2.546c0,-0 4.183,-10.767 3.725,-15.975c-0.437,-5.208 -6.396,-19.392 -9.104,-19.392c-2.858,0 -4.763,15.229 -4.763,17.913c0,8.187 4.559,14.05 4.559,14.05c-0,-0 -6.309,-4.267 -10.125,-9.079c-3.817,-4.813 -7.138,-9.959 -7.138,-9.959c0,0 9.55,-9.2 11.492,-15.362c1.937,-6.167 0.971,-20.504 -1.221,-21.084c-2.171,-0.575 -11.775,13.105 -12.442,18.83c-0.683,5.725 0,13.55 0,13.55c0,-0 -3.704,-6.534 -5.42,-14.492c-1.717,-7.954 -2.417,-14.858 -2.417,-14.858c-0,-0 11.558,-5.167 15.487,-10.267c5.184,-6.725 8.538,-19.254 6.675,-20.825c-1.695,-1.433 -13.77,7.212 -17.866,13.554c-2.3,3.588 -4.204,9.15 -4.204,9.15c-0,0 0.479,-7.754 2.325,-13.604c1.862,-5.858 4.575,-12.433 4.575,-12.433c-0,-0 0.308,-0.763 2.262,-1.021c1.954,-0.25 13.604,-1.679 17.496,-4.75c3.892,-3.079 13.942,-15.584 12.279,-17.588c-1.658,-2.004 -15.867,3.192 -19.783,6.054c-3.921,2.855 -5.271,4.875 -5.271,4.875c-0,0 2.471,-3.858 5.15,-7.17c2.687,-3.313 6.154,-7.155 6.154,-7.155c0,0 10.913,-1.391 15.046,-4.295c4.15,-2.909 10.929,-13.467 10.042,-14.696c-0.88,-1.234 -12.938,2.204 -16.83,5.154c-6.25,4.746 -9.383,12.396 -9.383,12.396c0,-0 -7.079,8.146 -9.962,12.446c-2.888,4.3 -7.346,11.995 -7.346,11.995c-0,0 2.296,-8.416 0.846,-13.512c-1.442,-5.096 -6.38,-18.45 -9.546,-18.029c-2.354,0.312 -5.242,15.108 -4.109,20.125c1.667,7.45 9.575,17.371 9.575,17.371c0,-0 -2.316,6.058 -3.537,11.045c-1.213,4.988 -2.246,11.263 -2.246,11.263c0,-0 -1.329,-4.875 -4.821,-9.438c-3.483,-4.562 -10.187,-11.129 -11.846,-10.125c-1.662,1.005 -0.666,13.496 1.53,18.096c2.358,4.971 6.616,9.734 10.766,12.909c1.821,1.395 3.867,2.229 3.867,2.229c-0,-0 0.683,5.9 1.733,9.871c1.05,3.975 2.342,8.05 2.342,8.05c-0,-0 -3.704,-3.459 -7.038,-5.155c-3.345,-1.695 -11.32,-5.675 -12.6,-4.208c-1.283,1.467 3.655,13.771 8.8,17.613c10.238,8.295 19.563,9.041 19.563,9.041c-0,0 2.287,3.275 4.279,5.396c1.971,2.125 4.625,4.642 4.625,4.642c0,-0 -2.55,-1.321 -7.112,-1.638c-4.559,-0.321 -12.525,-0.125 -12.78,1.309c-0.241,1.429 8.292,11.387 15.038,13.262c14.608,4.054 22.233,-2.321 22.233,-2.321c0,0 0.684,-0.008 3.175,1.067c2.475,1.075 3.192,1.467 3.192,1.467l0.829,-1.042Z" style="fill-rule:nonzero;"/><path d="M216.342,248.608c-0.3,0 -0.609,-0.066 -0.888,-0.212l-14.55,-7.646l-14.558,7.646c-0.629,0.329 -1.392,0.279 -1.979,-0.138c-0.584,-0.433 -0.888,-1.15 -0.755,-1.85l2.78,-16.2l-11.775,-11.487c-0.521,-0.5 -0.7,-1.258 -0.48,-1.933c0.221,-0.696 0.805,-1.188 1.53,-1.292l16.262,-2.371l7.283,-14.729c0.642,-1.296 2.759,-1.296 3.392,-0l7.275,14.729l16.271,2.371c0.696,0.104 1.3,0.596 1.529,1.292c0.217,0.675 0.033,1.433 -0.483,1.933l-11.775,11.487l2.775,16.2c0.133,0.7 -0.163,1.417 -0.754,1.85c-0.313,0.238 -0.717,0.35 -1.1,0.35" style="fill-rule:nonzero;"/><path d="M159.225,248.608c-0.317,0 -0.608,-0.066 -0.896,-0.212l-14.541,-7.646l-14.542,7.646c-0.638,0.329 -1.408,0.279 -1.996,-0.138c-0.579,-0.433 -0.871,-1.15 -0.754,-1.85l2.779,-16.2l-11.783,-11.487c-0.513,-0.5 -0.7,-1.258 -0.463,-1.933c0.213,-0.696 0.813,-1.188 1.529,-1.292l16.263,-2.371l7.275,-14.729c0.642,-1.296 2.742,-1.296 3.383,-0l7.284,14.729l16.262,2.371c0.721,0.104 1.308,0.596 1.529,1.292c0.225,0.675 0.042,1.433 -0.496,1.933l-11.762,11.487l2.783,16.2c0.117,0.7 -0.154,1.417 -0.754,1.85c-0.317,0.238 -0.7,0.35 -1.1,0.35" style="fill-rule:nonzero;"/><path d="M190.361,192.147c-0.3,-0 -0.596,-0.063 -0.871,-0.217l-14.55,-7.65l-14.558,7.65c-0.629,0.354 -1.408,0.287 -1.996,-0.146c-0.583,-0.421 -0.879,-1.137 -0.754,-1.842l2.779,-16.204l-11.758,-11.479c-0.521,-0.496 -0.717,-1.25 -0.496,-1.942c0.221,-0.683 0.821,-1.183 1.529,-1.283l16.263,-2.362l7.283,-14.742c0.642,-1.3 2.75,-1.3 3.392,-0l7.275,14.742l16.271,2.362c0.712,0.1 1.291,0.6 1.529,1.283c0.225,0.692 0.033,1.446 -0.484,1.942l-11.766,11.479l2.766,16.204c0.134,0.705 -0.162,1.421 -0.745,1.842c-0.321,0.25 -0.725,0.363 -1.109,0.363" style="fill-rule:nonzero;"/><defs><linearGradient id="_Linear1" x1="0" y1="0" x2="1" y2="0" gradientUnits="userSpaceOnUse" gradientTransform="matrix(-129.516,355.843,-355.843,-129.516,229.892,10.5957)"><stop offset="0" style="stop-color:#3c464c;stop-opacity:1"/><stop offset="1" style="stop-color:#32373d;stop-opacity:1"/></linearGradient></defs></svg>