<?xml version="1.0" encoding="UTF-8" standalone="no"?><!DOCTYPE svg PUBLIC "-//W3C//DTD SVG 1.1//EN" "http://www.w3.org/Graphics/SVG/1.1/DTD/svg11.dtd"><svg width="100%" height="100%" viewBox="0 0 338 398" version="1.1" xmlns="http://www.w3.org/2000/svg" xmlns:xlink="http://www.w3.org/1999/xlink" xml:space="preserve" xmlns:serif="http://www.serif.com/" style="fill-rule:evenodd;clip-rule:evenodd;stroke-linejoin:round;stroke-miterlimit:2;"><path d="M39.558,41.34l-29.083,194.966l23.666,65.134l134.817,83.945l134.833,-83.945l23.638,-65.13l-29.042,-194.97l-129.429,-30.85l-129.4,30.85Zm217.642,111.916c-2.684,-3.308 -6.146,-7.154 -6.146,-7.154c-0,0 -10.913,-1.392 -15.05,-4.296c-4.146,-2.912 -10.921,-13.466 -10.046,-14.696c0.887,-1.237 12.95,2.205 16.833,5.15c6.259,4.746 9.384,12.396 9.384,12.396c-0,0 7.079,8.142 9.958,12.45c2.892,4.296 7.35,11.996 7.35,11.996c-0,0 -2.288,-8.417 -0.85,-13.521c1.442,-5.091 6.392,-18.446 9.542,-18.021c2.358,0.309 5.25,15.1 4.125,20.121c-1.675,7.45 -9.588,17.367 -9.588,17.367c0,-0 2.325,6.062 3.538,11.054c1.216,4.988 2.241,11.263 2.241,11.263c0,-0 1.342,-4.875 4.825,-9.438c3.492,-4.567 10.188,-11.133 11.854,-10.125c1.663,1 0.663,13.492 -1.525,18.088c-2.366,4.975 -6.629,9.745 -10.766,12.916c-1.825,1.392 -3.867,2.225 -3.867,2.225c0,0 -0.692,5.904 -1.742,9.875c-1.05,3.971 -2.341,8.05 -2.341,8.05c-0,0 3.7,-3.458 7.046,-5.158c3.345,-1.696 11.312,-5.675 12.595,-4.208c1.288,1.462 -3.662,13.77 -8.808,17.612c-10.233,8.296 -19.562,9.042 -19.562,9.042c-0,-0 -2.296,3.275 -4.271,5.4c-1.975,2.125 -4.625,4.641 -4.625,4.641c-0,0 2.55,-1.32 7.108,-1.637c4.554,-0.325 12.525,-0.129 12.767,1.304c0.254,1.433 -8.284,11.392 -15.029,13.263c-14.6,4.054 -22.225,-2.317 -22.225,-2.317c-0,-0 -0.696,-0.013 -3.175,1.062c-2.48,1.075 -3.196,1.467 -3.196,1.467l-0.842,-1.042c-0.396,-0.583 -1.308,-1.041 -1.308,-1.041c-0,-0 2.741,-0.084 6.475,-1.663c3.471,-1.462 5.591,-2.546 5.591,-2.546c0,0 -4.17,-10.766 -3.725,-15.975c0.45,-5.208 6.405,-19.391 9.109,-19.391c2.862,-0 4.758,15.233 4.758,17.912c0,8.184 -4.558,14.054 -4.558,14.054c-0,0 6.308,-4.262 10.129,-9.083c3.821,-4.812 7.133,-9.958 7.133,-9.958c0,-0 -9.537,-9.196 -11.483,-15.359c-1.946,-6.166 -0.971,-20.508 1.212,-21.087c2.184,-0.575 11.784,13.104 12.45,18.833c0.667,5.721 0,13.55 0,13.55c0,0 3.688,-6.537 5.409,-14.496c1.712,-7.95 2.429,-14.858 2.429,-14.858c-0,0 -11.554,-5.167 -15.488,-10.262c-5.187,-6.73 -8.537,-19.255 -6.679,-20.825c1.7,-1.434 13.775,7.208 17.863,13.55c2.308,3.591 4.216,9.154 4.216,9.154c0,-0 -0.483,-7.754 -2.341,-13.609c-1.863,-5.858 -4.559,-12.429 -4.559,-12.429c0,0 -0.312,-0.766 -2.262,-1.021c-1.954,-0.25 -13.621,-1.683 -17.508,-4.75c-3.896,-3.075 -13.942,-15.587 -12.28,-17.591c1.663,-2.009 15.88,3.191 19.792,6.05c3.917,2.854 5.275,4.883 5.275,4.883c0,0 -2.475,-3.858 -5.162,-7.171Zm-181.434,3.85c2.888,-4.308 9.963,-12.45 9.963,-12.45c-0,0 3.129,-7.65 9.383,-12.396c3.888,-2.945 15.946,-6.387 16.825,-5.15c0.888,1.23 -5.892,11.784 -10.037,14.696c-4.138,2.904 -15.046,4.296 -15.046,4.296c-0,0 -3.467,3.846 -6.15,7.154c-2.684,3.313 -5.159,7.171 -5.159,7.171c0,0 1.359,-2.029 5.275,-4.883c3.909,-2.859 18.13,-8.059 19.788,-6.05c1.662,2.004 -8.388,14.516 -12.279,17.591c-3.892,3.067 -15.554,4.5 -17.504,4.75c-1.955,0.255 -2.263,1.021 -2.263,1.021c0,0 -2.7,6.571 -4.558,12.429c-1.863,5.855 -2.342,13.609 -2.342,13.609c0,-0 1.904,-5.563 4.213,-9.154c4.091,-6.342 16.162,-14.984 17.866,-13.55c1.854,1.57 -1.491,14.095 -6.683,20.825c-3.929,5.095 -15.488,10.262 -15.488,10.262c0,0 0.709,6.908 2.434,14.858c1.708,7.959 5.404,14.496 5.404,14.496c-0,0 -0.675,-7.829 -0,-13.55c0.675,-5.729 10.271,-19.408 12.45,-18.833c2.183,0.579 3.158,14.921 1.217,21.087c-1.946,6.163 -11.492,15.359 -11.492,15.359c-0,-0 3.321,5.146 7.142,9.958c3.82,4.821 10.125,9.083 10.125,9.083c-0,0 -4.559,-5.87 -4.559,-14.054c0,-2.679 1.896,-17.912 4.763,-17.912c2.691,-0 8.658,14.183 9.104,19.391c0.446,5.209 -3.725,15.975 -3.725,15.975c-0,0 2.125,1.084 5.592,2.546c3.741,1.579 6.475,1.663 6.475,1.663c-0,-0 -0.913,0.458 -1.317,1.041l-0.829,1.042c-0,0 -0.717,-0.392 -3.196,-1.467c-2.483,-1.075 -3.179,-1.062 -3.179,-1.062c-0,-0 -7.625,6.371 -22.221,2.317c-6.746,-1.871 -15.288,-11.83 -15.042,-13.263c0.254,-1.433 8.221,-1.629 12.775,-1.304c4.563,0.317 7.109,1.637 7.109,1.637c-0,0 -2.646,-2.516 -4.625,-4.641c-1.984,-2.125 -4.271,-5.4 -4.271,-5.4c-0,-0 -9.329,-0.746 -19.563,-9.042c-5.146,-3.842 -10.091,-16.15 -8.808,-17.612c1.287,-1.467 9.254,2.512 12.6,4.208c3.342,1.7 7.046,5.158 7.046,5.158c-0,0 -1.292,-4.079 -2.354,-8.05c-1.05,-3.971 -1.734,-9.875 -1.734,-9.875c0,0 -2.041,-0.833 -3.866,-2.225c-4.142,-3.171 -8.396,-7.941 -10.771,-12.916c-2.188,-4.596 -3.179,-17.088 -1.521,-18.088c1.667,-1.008 8.362,5.558 11.85,10.125c3.487,4.563 4.825,9.438 4.825,9.438c-0,-0 1.029,-6.275 2.246,-11.263c1.212,-4.992 3.533,-11.054 3.533,-11.054c0,-0 -7.908,-9.917 -9.583,-17.367c-1.125,-5.021 1.758,-19.812 4.121,-20.121c3.158,-0.425 8.104,12.93 9.545,18.021c1.438,5.104 -0.85,13.521 -0.85,13.521c0,0 4.463,-7.7 7.346,-11.996Zm108.992,34.563c-0.521,-0.384 -0.783,-1.029 -0.667,-1.671l2.496,-14.525l-10.571,-10.283c-0.45,-0.45 -0.633,-1.125 -0.429,-1.742c0.192,-0.613 0.738,-1.067 1.375,-1.158l14.592,-2.125l6.533,-13.221c0.575,-1.159 2.475,-1.159 3.05,-0l6.504,13.221l14.6,2.125c0.642,0.091 1.171,0.545 1.375,1.158c0.2,0.617 0.021,1.292 -0.433,1.742l-10.571,10.283l2.504,14.525c0.1,0.642 -0.158,1.287 -0.679,1.671c-0.287,0.216 -0.654,0.325 -0.996,0.325c-0.258,-0 -0.537,-0.067 -0.796,-0.196l-13.037,-6.863l-13.063,6.863c-0.241,0.129 -0.512,0.192 -0.779,0.192c-0.354,-0 -0.708,-0.109 -1.008,-0.321Zm-61.363,-0c-0.52,-0.384 -0.783,-1.029 -0.666,-1.671l2.5,-14.525l-10.571,-10.283c-0.45,-0.45 -0.638,-1.125 -0.433,-1.742c0.195,-0.613 0.737,-1.067 1.375,-1.158l14.591,-2.125l6.534,-13.221c0.579,-1.159 2.475,-1.159 3.054,-0l6.5,13.221l14.6,2.125c0.646,0.091 1.175,0.545 1.375,1.158c0.204,0.617 0.025,1.292 -0.429,1.742l-10.575,10.283l2.508,14.525c0.1,0.642 -0.163,1.287 -0.683,1.671c-0.28,0.216 -0.65,0.325 -0.996,0.325c-0.259,-0 -0.534,-0.067 -0.792,-0.196l-13.042,-6.863l-13.058,6.863c-0.246,0.129 -0.512,0.192 -0.783,0.192c-0.354,-0 -0.709,-0.109 -1.009,-0.321Zm61.363,60.596c-0.521,-0.392 -0.783,-1.034 -0.667,-1.667l2.496,-14.533l-10.571,-10.284c-0.45,-0.45 -0.633,-1.133 -0.429,-1.746c0.192,-0.608 0.738,-1.07 1.375,-1.158l14.592,-2.121l6.533,-13.216c0.575,-1.167 2.475,-1.167 3.05,-0l6.504,13.216l14.6,2.121c0.642,0.088 1.171,0.55 1.375,1.158c0.2,0.613 0.021,1.296 -0.433,1.746l-10.571,10.284l2.504,14.533c0.1,0.633 -0.158,1.275 -0.679,1.667c-0.287,0.208 -0.654,0.32 -0.996,0.32c-0.258,0 -0.537,-0.066 -0.796,-0.2l-13.037,-6.858l-13.063,6.858c-0.241,0.134 -0.512,0.196 -0.783,0.196c-0.35,0 -0.704,-0.108 -1.004,-0.316Zm-61.363,-0c-0.52,-0.392 -0.783,-1.034 -0.666,-1.667l2.5,-14.533l-10.571,-10.284c-0.45,-0.45 -0.638,-1.133 -0.433,-1.746c0.195,-0.608 0.737,-1.07 1.375,-1.158l14.591,-2.121l6.534,-13.216c0.579,-1.167 2.475,-1.167 3.054,-0l6.5,13.216l14.6,2.121c0.646,0.088 1.175,0.55 1.375,1.158c0.204,0.613 0.025,1.296 -0.429,1.746l-10.575,10.284l2.508,14.533c0.1,0.633 -0.163,1.275 -0.683,1.667c-0.28,0.208 -0.65,0.32 -0.996,0.32c-0.259,0 -0.534,-0.066 -0.792,-0.2l-13.042,-6.858l-13.058,6.858c-0.246,0.134 -0.517,0.196 -0.783,0.196c-0.354,0 -0.709,-0.108 -1.009,-0.316Z" style="fill:url(#_Linear1);fill-rule:nonzero;"/><path d="M303.792,301.442l-134.83,83.946l-134.825,-83.946l-23.662,-65.129l29.083,-194.971l129.404,-30.85l129.425,30.85l29.046,194.971l-23.641,65.129Zm3.67,-268.425l-138.5,-33.017l-138.479,33.017l-30.483,204.346l25.754,70.879l143.208,89.171l143.217,-89.171l25.729,-70.879l-30.446,-204.346Z" style="fill:#a7a89b;fill-rule:nonzero;"/><defs><linearGradient id="_Linear1" x1="0" y1="0" x2="1" y2="0" gradientUnits="userSpaceOnUse" gradientTransform="matrix(-125.715,345.399,-345.399,-125.715,228.295,15.8255)"><stop offset="0" style="stop-color:#a7a89b;stop-opacity:1"/><stop offset="1" style="stop-color:#61625c;stop-opacity:1"/></linearGradient></defs></svg>