<?xml version="1.0" encoding="UTF-8" standalone="no"?><!DOCTYPE svg PUBLIC "-//W3C//DTD SVG 1.1//EN" "http://www.w3.org/Graphics/SVG/1.1/DTD/svg11.dtd"><svg width="100%" height="100%" viewBox="0 0 338 398" version="1.1" xmlns="http://www.w3.org/2000/svg" xmlns:xlink="http://www.w3.org/1999/xlink" xml:space="preserve" xmlns:serif="http://www.serif.com/" style="fill-rule:evenodd;clip-rule:evenodd;stroke-linejoin:round;stroke-miterlimit:2;"><path d="M35.02,37.178l-29.779,199.659l24.704,68l139.017,86.566l139.016,-86.562l24.692,-68.004l-29.746,-199.659l-133.962,-31.933l-133.942,31.933Z" style="fill:url(#_Linear1);fill-rule:nonzero;"/><path d="M168.962,-0l-138.475,33.017l-30.487,204.345l25.754,70.88l143.208,89.17l143.213,-89.17l25.733,-70.88l-30.446,-204.345l-138.5,-33.017Zm0,10.492l129.425,30.85l29.046,194.966l-23.65,65.134l-134.821,83.95l-134.82,-83.95l-23.667,-65.134l29.083,-194.966l129.404,-30.85Z" style="fill:#3c464c;fill-rule:nonzero;"/><path d="M181.178,240.507c-0.238,0 -0.5,-0.054 -0.721,-0.171l-11.842,-6.229l-11.854,6.229c-0.508,0.271 -1.146,0.225 -1.621,-0.112c-0.466,-0.35 -0.712,-0.938 -0.608,-1.517l2.263,-13.2l-9.592,-9.337c-0.421,-0.413 -0.558,-1.013 -0.379,-1.588c0.171,-0.546 0.658,-0.954 1.225,-1.037l13.246,-1.925l5.937,-12c0.521,-1.059 2.233,-1.059 2.767,-0l5.921,12l13.241,1.925c0.584,0.083 1.067,0.491 1.25,1.037c0.167,0.575 0.021,1.175 -0.387,1.588l-9.592,9.337l2.271,13.2c0.096,0.579 -0.146,1.167 -0.608,1.517c-0.284,0.183 -0.6,0.283 -0.917,0.283" style="fill-rule:nonzero;"/><path d="M130.95,240.515c-0.254,0 -0.492,-0.062 -0.725,-0.179l-11.846,-6.229l-11.85,6.229c-0.517,0.271 -1.15,0.225 -1.621,-0.113c-0.462,-0.35 -0.704,-0.937 -0.608,-1.516l2.258,-13.2l-9.587,-9.338c-0.409,-0.412 -0.567,-1.012 -0.384,-1.566c0.18,-0.563 0.655,-0.975 1.238,-1.059l13.258,-1.925l5.917,-11.996c0.525,-1.062 2.254,-1.062 2.775,0l5.908,11.996l13.246,1.925c0.596,0.084 1.063,0.496 1.25,1.059c0.192,0.554 0.033,1.154 -0.392,1.566l-9.587,9.338l2.262,13.2c0.1,0.579 -0.137,1.166 -0.612,1.516c-0.267,0.184 -0.575,0.292 -0.9,0.292" style="fill-rule:nonzero;"/><path d="M231.581,240.507c-0.242,0 -0.479,-0.054 -0.721,-0.171l-11.842,-6.229l-11.846,6.229c-0.512,0.271 -1.158,0.225 -1.625,-0.112c-0.483,-0.35 -0.712,-0.938 -0.62,-1.517l2.266,-13.2l-9.583,-9.337c-0.421,-0.413 -0.579,-1.013 -0.392,-1.588c0.184,-0.546 0.659,-0.954 1.25,-1.037l13.238,-1.925l5.921,-12c0.529,-1.059 2.245,-1.059 2.766,-0l5.917,12l13.258,1.925c0.584,0.083 1.063,0.491 1.246,1.037c0.179,0.575 0.038,1.175 -0.387,1.588l-9.6,9.337l2.275,13.2c0.1,0.579 -0.134,1.167 -0.6,1.517c-0.292,0.183 -0.609,0.283 -0.921,0.283" style="fill-rule:nonzero;"/><path d="M156.308,194.539c-0.246,0 -0.483,-0.066 -0.708,-0.183l-11.867,-6.221l-11.854,6.221c-0.509,0.279 -1.134,0.233 -1.604,-0.113c-0.484,-0.345 -0.721,-0.925 -0.617,-1.512l2.258,-13.204l-9.579,-9.329c-0.425,-0.413 -0.583,-1.025 -0.396,-1.58c0.184,-0.558 0.659,-0.97 1.25,-1.058l13.242,-1.921l5.929,-12c0.513,-1.046 2.233,-1.046 2.754,0l5.917,12l13.258,1.921c0.571,0.088 1.059,0.5 1.254,1.058c0.18,0.555 0.017,1.167 -0.408,1.58l-9.571,9.329l2.25,13.204c0.113,0.587 -0.129,1.167 -0.608,1.512c-0.275,0.192 -0.583,0.296 -0.9,0.296" style="fill-rule:nonzero;"/><path d="M207.28,194.539c-0.262,0 -0.504,-0.066 -0.737,-0.183l-11.838,-6.221l-11.854,6.221c-0.512,0.279 -1.162,0.233 -1.621,-0.113c-0.475,-0.345 -0.72,-0.925 -0.612,-1.512l2.271,-13.204l-9.604,-9.329c-0.413,-0.413 -0.559,-1.025 -0.371,-1.58c0.162,-0.558 0.658,-0.97 1.241,-1.058l13.246,-1.921l5.921,-12c0.517,-1.046 2.238,-1.046 2.767,0l5.921,12l13.254,1.921c0.575,0.088 1.054,0.5 1.25,1.058c0.171,0.555 0.021,1.167 -0.409,1.58l-9.583,9.329l2.258,13.204c0.109,0.587 -0.137,1.167 -0.612,1.512c-0.267,0.192 -0.575,0.296 -0.888,0.296" style="fill-rule:nonzero;"/><path d="M98.687,270.292c0.404,-0.587 1.312,-1.042 1.312,-1.042c0,0 -2.737,-0.087 -6.475,-1.662c-3.467,-1.463 -5.592,-2.546 -5.592,-2.546c0,0 4.175,-10.762 3.725,-15.971c-0.445,-5.208 -6.408,-19.396 -9.104,-19.396c-2.866,0 -4.762,15.23 -4.762,17.913c-0,8.187 4.558,14.05 4.558,14.05c0,-0 -6.308,-4.267 -10.133,-9.079c-3.817,-4.813 -7.134,-9.959 -7.134,-9.959c0,0 9.546,-9.2 11.488,-15.362c1.946,-6.167 0.971,-20.504 -1.213,-21.083c-2.179,-0.575 -11.779,13.104 -12.45,18.829c-0.67,5.725 0,13.55 0,13.55c0,-0 -3.687,-6.534 -5.408,-14.492c-1.717,-7.954 -2.429,-14.858 -2.429,-14.858c-0,-0 11.558,-5.167 15.487,-10.267c5.184,-6.721 8.538,-19.254 6.684,-20.825c-1.704,-1.433 -13.779,7.213 -17.867,13.554c-2.308,3.588 -4.212,9.15 -4.212,9.15c-0,0 0.479,-7.754 2.337,-13.604c1.863,-5.858 4.563,-12.433 4.563,-12.433c-0,-0 0.308,-0.763 2.262,-1.021c1.954,-0.25 13.617,-1.679 17.508,-4.75c3.892,-3.079 13.938,-15.583 12.275,-17.588c-1.658,-2.008 -15.875,3.192 -19.791,6.05c-3.913,2.859 -5.271,4.88 -5.271,4.88c-0,-0 2.471,-3.859 5.158,-7.171c2.688,-3.313 6.146,-7.154 6.146,-7.154c0,-0 10.913,-1.392 15.054,-4.296c4.142,-2.909 10.921,-13.467 10.034,-14.696c-0.88,-1.233 -12.938,2.204 -16.83,5.154c-6.25,4.746 -9.383,12.396 -9.383,12.396c0,-0 -7.071,8.146 -9.962,12.446c-2.88,4.3 -7.338,11.996 -7.338,11.996c0,-0 2.288,-8.417 0.846,-13.513c-1.442,-5.096 -6.388,-18.45 -9.546,-18.029c-2.362,0.312 -5.25,15.108 -4.117,20.125c1.675,7.45 9.584,17.371 9.584,17.371c-0,-0 -2.325,6.058 -3.538,11.046c-1.212,4.987 -2.241,11.262 -2.241,11.262c-0,0 -1.342,-4.875 -4.834,-9.433c-3.479,-4.567 -10.179,-11.134 -11.837,-10.129c-1.671,1.004 -0.675,13.495 1.516,18.095c2.367,4.971 6.621,9.734 10.771,12.909c1.821,1.396 3.867,2.225 3.867,2.225c-0,-0 0.683,5.904 1.733,9.875c1.054,3.975 2.342,8.05 2.342,8.05c-0,-0 -3.696,-3.459 -7.038,-5.154c-3.345,-1.696 -11.312,-5.675 -12.6,-4.209c-1.283,1.467 3.663,13.771 8.809,17.613c10.233,8.296 19.562,9.041 19.562,9.041c0,0 2.292,3.275 4.271,5.396c1.983,2.125 4.625,4.642 4.625,4.642c0,-0 -2.55,-1.321 -7.104,-1.638c-4.558,-0.32 -12.525,-0.125 -12.775,1.309c-0.246,1.429 8.287,11.387 15.037,13.262c14.596,4.054 22.225,-2.321 22.225,-2.321c0,0 0.692,-0.008 3.171,1.067c2.484,1.079 3.2,1.467 3.2,1.467l0.834,-1.042Z" style="fill-rule:nonzero;"/><path d="M239.226,270.292c-0.408,-0.587 -1.316,-1.042 -1.316,-1.042c-0,0 2.741,-0.087 6.475,-1.662c3.466,-1.463 5.591,-2.546 5.591,-2.546c0,0 -4.175,-10.762 -3.725,-15.971c0.446,-5.208 6.404,-19.396 9.104,-19.396c2.867,0 4.763,15.23 4.763,17.913c-0,8.187 -4.558,14.05 -4.558,14.05c-0,-0 6.308,-4.267 10.129,-9.079c3.821,-4.813 7.133,-9.959 7.133,-9.959c0,0 -9.542,-9.2 -11.483,-15.362c-1.946,-6.167 -0.971,-20.504 1.212,-21.083c2.179,-0.575 11.779,13.104 12.45,18.829c0.667,5.725 0,13.55 0,13.55c0,-0 3.688,-6.534 5.404,-14.492c1.721,-7.954 2.434,-14.858 2.434,-14.858c-0,-0 -11.559,-5.167 -15.488,-10.267c-5.183,-6.721 -8.541,-19.254 -6.683,-20.825c1.704,-1.433 13.775,7.213 17.867,13.554c2.308,3.588 4.212,9.15 4.212,9.15c0,0 -0.479,-7.754 -2.342,-13.604c-1.854,-5.858 -4.558,-12.433 -4.558,-12.433c0,-0 -0.308,-0.763 -2.262,-1.021c-1.955,-0.25 -13.617,-1.679 -17.509,-4.75c-3.891,-3.079 -13.937,-15.583 -12.275,-17.588c1.659,-2.008 15.875,3.192 19.792,6.05c3.912,2.859 5.271,4.88 5.271,4.88c-0,-0 -2.471,-3.859 -5.159,-7.171c-2.687,-3.313 -6.15,-7.154 -6.15,-7.154c0,-0 -10.908,-1.392 -15.05,-4.296c-4.141,-2.909 -10.92,-13.467 -10.041,-14.696c0.887,-1.233 12.946,2.204 16.833,5.154c6.254,4.746 9.383,12.396 9.383,12.396c0,-0 7.075,8.146 9.959,12.446c2.887,4.3 7.346,11.996 7.346,11.996c-0,-0 -2.288,-8.417 -0.846,-13.513c1.441,-5.096 6.387,-18.45 9.537,-18.029c2.363,0.312 5.254,15.108 4.125,20.125c-1.675,7.45 -9.579,17.371 -9.579,17.371c0,-0 2.321,6.058 3.533,11.046c1.213,4.987 2.238,11.262 2.238,11.262c-0,0 1.346,-4.875 4.829,-9.433c3.488,-4.567 10.188,-11.134 11.85,-10.129c1.667,1.004 0.667,13.495 -1.525,18.095c-2.362,4.971 -6.621,9.734 -10.767,12.909c-1.82,1.396 -3.866,2.225 -3.866,2.225c-0,-0 -0.692,5.904 -1.742,9.875c-1.05,3.975 -2.333,8.05 -2.333,8.05c-0,-0 3.696,-3.459 7.037,-5.154c3.346,-1.696 11.313,-5.675 12.6,-4.209c1.284,1.467 -3.662,13.771 -8.808,17.613c-10.233,8.296 -19.563,9.041 -19.563,9.041c0,0 -2.295,3.275 -4.27,5.396c-1.988,2.125 -4.625,4.642 -4.625,4.642c-0,-0 2.55,-1.321 7.104,-1.638c4.558,-0.32 12.525,-0.125 12.779,1.309c0.242,1.429 -8.292,11.387 -15.038,13.262c-14.6,4.054 -22.225,-2.321 -22.225,-2.321c0,0 -0.691,-0.008 -3.175,1.067c-2.483,1.079 -3.2,1.467 -3.2,1.467l-0.829,-1.042Z" style="fill-rule:nonzero;"/><defs><linearGradient id="_Linear1" x1="0" y1="0" x2="1" y2="0" gradientUnits="userSpaceOnUse" gradientTransform="matrix(-129.516,355.841,-355.841,-129.516,229.892,10.5957)"><stop offset="0" style="stop-color:#3c464c;stop-opacity:1"/><stop offset="1" style="stop-color:#32373d;stop-opacity:1"/></linearGradient></defs></svg>