<?xml version="1.0" encoding="UTF-8" standalone="no"?><!DOCTYPE svg PUBLIC "-//W3C//DTD SVG 1.1//EN" "http://www.w3.org/Graphics/SVG/1.1/DTD/svg11.dtd"><svg width="100%" height="100%" viewBox="0 0 207 323" version="1.1" xmlns="http://www.w3.org/2000/svg" xmlns:xlink="http://www.w3.org/1999/xlink" xml:space="preserve" xmlns:serif="http://www.serif.com/" style="fill-rule:evenodd;clip-rule:evenodd;stroke-linejoin:round;stroke-miterlimit:2;"><path d="M97.323,43.49c0.533,12.271 2.487,55.442 4.675,70.758c1.7,11.867 14.542,116.925 12.1,128.117c-0.196,0.908 -0.35,2.117 -0.529,3.517c-0.634,4.845 -1.479,11.45 -4.696,16.141c-6.792,9.854 -8.788,15.063 -6.908,17.946l0.916,1.45c2.017,3.217 4.284,6.871 9.434,9.033c3.887,1.646 9.237,2.68 14.425,3.696c4.85,0.929 9.42,1.825 13.029,3.204c3.112,1.184 7.2,2.875 11.779,4.763c14.121,5.821 35.792,14.883 42.521,14.167c5.5,-0.517 6.571,-1.825 6.729,-2.088c0.242,-0.383 0.029,-1.121 -0.175,-1.692c-0.017,-0.037 -2.346,-5.17 -11.092,-9.625c-20.704,-10.512 -40.871,-30.337 -44.041,-43.287c-0.238,-1.004 -0.6,-2.025 -0.988,-3.183c-2.058,-6.017 -5.517,-16.092 -3.446,-43.825c1.046,-13.85 3.479,-29.988 6.063,-47.088c2.837,-18.696 5.75,-38.021 6.941,-55.35c2.071,-30.121 1.617,-55.829 1.388,-64.071l-58.125,-2.583Zm51.925,264.225c-4.517,-1.863 -8.554,-3.546 -11.629,-4.704c-3.125,-1.188 -7.454,-2.034 -12.038,-2.929c-5.475,-1.059 -11.158,-2.171 -15.629,-4.046c-6.912,-2.925 -9.962,-7.838 -12.2,-11.417l-0.85,-1.333c-4.083,-6.229 -0.529,-13.771 6.983,-24.684c2.384,-3.491 3.142,-9.266 3.68,-13.491c0.204,-1.609 0.387,-3 0.616,-4.017c1.946,-8.867 -9.087,-104.45 -12.175,-125.987c-2.587,-18.146 -4.766,-72.363 -4.858,-74.659l-0.142,-3.291l70.288,3.116l0.112,2.771c0.021,0.3 1.229,30.638 -1.3,67.504c-1.208,17.592 -4.154,37.034 -6.991,55.846c-2.575,16.971 -5,33.017 -6.017,46.629c-1.988,26.513 1.092,35.488 3.117,41.425c0.475,1.35 0.87,2.534 1.145,3.7c2.471,10.013 19.867,28.646 40.888,39.334c8.992,4.566 13.117,10.437 14.042,12.908c1,2.671 0.891,5.033 -0.35,7.008c-1.746,2.784 -5.334,4.329 -11.309,4.921c-0.358,0.025 -0.754,0.046 -1.191,0.046c-8.671,-0 -28.371,-8.125 -44.192,-14.65" style="fill:#bf8564;fill-rule:nonzero;"/><path d="M124.887,296.688c0.108,-0.65 2.241,-16.137 -0.088,-24.041c-2.391,-8.163 -14,-16.438 -15.312,-17.355l-3.467,4.971c3.1,2.146 11.458,8.904 12.975,14.084c1.625,5.537 0.492,17.4 -0.096,21.504l5.988,0.837Z" style="fill:#bf8564;fill-rule:nonzero;"/><path d="M172.173,313.762c1.22,-2.767 2.945,-6.283 3.654,-7.146c1.346,-1.658 6.746,-5.696 9.825,-7.875l-3.484,-4.958c-0.875,0.625 -8.708,6.162 -11.037,9.008c-1.571,1.938 -4.029,7.463 -4.504,8.538l5.546,2.433Z" style="fill:#bf8564;fill-rule:nonzero;"/><path d="M158.688,60.012l-41.113,0c-6.933,0 -22.633,-2.354 -22.633,-2.354l1.358,16.767c0,-0 15.455,4.921 19.017,5.208c3.55,0.292 42.842,0 42.842,0l0.529,-19.621Z" style="fill:#bf8564;fill-rule:nonzero;"/><path d="M158.688,92.693l-39.958,-0c-6.738,-0 -21.996,-2.334 -21.996,-2.334l1.308,16.767c0,-0 15.033,4.912 18.492,5.2c3.45,0.296 41.633,-0 41.633,-0l0.521,-19.633Z" style="fill:#bf8564;fill-rule:nonzero;"/><path d="M153.845,127.239l-34.158,-0c-5.762,-0 -18.804,-2.342 -18.804,-2.342l1.117,16.767c-0,-0 12.85,4.908 15.804,5.204c2.954,0.296 35.596,-0 35.596,-0l0.445,-19.629Z" style="fill:#bf8564;fill-rule:nonzero;"/><path d="M108.183,241.079c0.342,-1.537 0.267,-5.729 -0.066,-11.662c-1.359,-2.446 -3.05,-5.084 -5.038,-7.975c-2.375,-3.484 -3.133,-9.275 -3.671,-13.492c-0.208,-1.604 -0.395,-2.992 -0.629,-4.029c-0.8,-3.638 0.609,-21.938 2.729,-43.717c-1.125,-10.017 -2.237,-19.479 -3.195,-27.404c-3.509,31.783 -6.78,66.258 -5.438,72.408c0.188,0.904 0.333,2.121 0.529,3.525c0.629,4.825 1.484,11.438 4.696,16.121c6.788,9.888 8.779,15.079 6.892,17.954l-0.909,1.446c-2.004,3.225 -4.283,6.871 -9.425,9.042c-3.9,1.646 -9.254,2.696 -14.42,3.687c-4.855,0.946 -9.446,1.829 -13.05,3.213c-3.105,1.187 -7.196,2.875 -11.771,4.754c-14.113,5.833 -35.784,14.892 -42.513,14.175c-5.504,-0.521 -6.583,-1.829 -6.737,-2.083c-0.225,-0.392 -0.034,-1.134 0.171,-1.684c0.02,-0.058 2.35,-5.191 11.116,-9.633c20.692,-10.517 40.838,-30.342 44.025,-43.296c0.238,-1.004 0.596,-2.017 0.988,-3.179c2.062,-6.017 5.508,-16.088 3.441,-43.817c-1.041,-13.854 -3.475,-30.004 -6.058,-47.104c-2.821,-18.679 -5.746,-38.008 -6.95,-55.358c-2.075,-30.104 -1.617,-55.8 -1.383,-64.067l58.125,-2.571c-0.246,5.754 -0.825,18.304 -1.567,31.575l6.058,0.267c1,-17.504 1.634,-33.658 1.692,-34.888l0.117,-3.287l-70.275,3.108l-0.113,2.767c0,0.312 -1.229,30.654 1.309,67.521c1.212,17.587 4.145,37.025 6.995,55.837c2.563,16.984 4.996,33.021 6,46.654c1.984,26.492 -1.083,35.467 -3.125,41.409c-0.45,1.341 -0.845,2.529 -1.141,3.687c-2.446,10.038 -19.846,28.654 -40.892,39.346c-8.971,4.563 -13.1,10.429 -14.021,12.896c-1.008,2.671 -0.896,5.037 0.35,7.017c1.734,2.779 5.329,4.329 11.296,4.904c0.367,0.041 0.775,0.058 1.204,0.058c8.663,0 28.371,-8.121 44.192,-14.654c4.521,-1.854 8.554,-3.525 11.629,-4.704c3.133,-1.188 7.454,-2.029 12.033,-2.913c5.488,-1.066 11.159,-2.183 15.625,-4.054c4.65,-1.962 7.467,-4.817 9.559,-7.567c0.437,-2.15 0.754,-4.325 1,-6.204c0.2,-1.604 0.383,-2.996 0.616,-4.029" style="fill:#bf8564;fill-rule:nonzero;"/><path d="M110.063,246.129c3.004,-4.575 1.854,-9.884 -1.946,-16.713c0.333,5.938 0.408,10.125 0.067,11.663c-0.234,1.033 -0.417,2.425 -0.621,4.029c-0.242,1.879 -0.558,4.054 -0.996,6.204c1.013,-1.354 1.925,-2.679 2.658,-3.85l0.838,-1.333Z" style="fill:#bf8564;fill-rule:nonzero;"/><path d="M100.948,223.094l-3.458,-4.954c-1.325,0.912 -12.925,9.196 -15.333,17.354c-2.317,7.9 -0.175,23.383 -0.096,24.046l5.996,-0.858c-0.575,-4.1 -1.709,-15.95 -0.088,-21.492c1.521,-5.175 9.888,-11.929 12.979,-14.096" style="fill:#bf8564;fill-rule:nonzero;"/><path d="M34.786,276.606c-1.204,-2.767 -2.95,-6.292 -3.65,-7.146c-1.337,-1.667 -6.733,-5.704 -9.825,-7.871l3.475,-4.954c0.884,0.617 8.729,6.162 11.05,8.987c1.579,1.942 4.021,7.463 4.509,8.555l-5.559,2.429Z" style="fill:#bf8564;fill-rule:nonzero;"/><path d="M91.008,37.149l17.571,0.779c1.241,-0.388 2.096,-0.667 2.096,-0.667l1.341,-16.754c0,0 -15.7,2.346 -22.621,2.346l-41.116,-0l0.537,19.617c0,-0 37.246,0.279 42.425,0.02c-0.058,-1.033 -0.096,-1.829 -0.096,-2.05l-0.137,-3.291Z" style="fill:#bf8564;fill-rule:nonzero;"/><path d="M88.233,55.542l-39.954,0l0.521,19.617c-0,0 38.175,0.308 41.633,0c0.529,-0.029 1.396,-0.208 2.371,-0.433c-0.392,-6.979 -0.734,-13.717 -1.004,-19.342c-1.317,0.092 -2.546,0.158 -3.567,0.158" style="fill:#bf8564;fill-rule:nonzero;"/><path d="M87.285,90.072l-34.155,0l0.438,19.638c-0,-0 32.633,0.291 35.587,-0c1.075,-0.113 3.446,-0.83 6.038,-1.692c-0.529,-5.25 -1.025,-11.638 -1.483,-18.438c-2.425,0.28 -4.742,0.492 -6.425,0.492" style="fill:#bf8564;fill-rule:nonzero;"/></svg>